<?xml version="1.0" encoding="iso-8859-1"?>
<!-- Generator: Adobe Illustrator 19.0.0, SVG Export Plug-In . SVG Version: 6.00 Build 0)  -->
<svg version="1.1" id="Capa_1" xmlns="http://www.w3.org/2000/svg" xmlns:xlink="http://www.w3.org/1999/xlink" x="0px" y="0px"
	 viewBox="0 0 512 512" style="enable-background:new 0 0 512 512;" xml:space="preserve">
<g>
	<g>
		<g>
			<path d="M509.501,324.63c-1.6-1.6-3.771-2.499-6.035-2.499H486.4v-59.733c-0.015-14.132-11.468-25.585-25.6-25.6h-34.133v-17.067
				c0.001-2.263-0.898-4.434-2.499-6.035s-3.771-2.499-6.035-2.499H384c-2.263-0.001-4.434,0.898-6.035,2.499
				c-1.6,1.6-2.499,3.771-2.499,6.035v17.067c0,3.673,2.349,6.934,5.833,8.096l1.313,0.438h-15.679v-17.067
				c0.001-2.263-0.898-4.434-2.499-6.035c-1.6-1.6-3.771-2.499-6.035-2.499v-51.2c0.001-2.263-0.898-4.434-2.499-6.035
				c-1.6-1.6-3.771-2.499-6.035-2.499h-71.931c-0.672-1.215-1.445-2.372-2.311-3.458v-5.076h23.042
				c2.263,0.001,4.434-0.898,6.035-2.499c1.6-1.6,2.499-3.771,2.499-6.035v-21.333c0.001-2.263-0.898-4.434-2.499-6.035
				c-1.6-1.6-3.771-2.499-6.035-2.499h-85.333c-2.263-0.001-4.434,0.898-6.035,2.499c-1.6,1.6-2.499,3.771-2.499,6.035v21.333
				c-0.001,2.263,0.898,4.434,2.499,6.035c1.6,1.6,3.771,2.499,6.035,2.499h23.892v4.186c-1.185,1.334-2.224,2.792-3.099,4.347
				h-71.993c-2.263-0.001-4.434,0.898-6.035,2.499c-1.6,1.6-2.499,3.771-2.499,6.035v51.2c-2.263-0.001-4.434,0.898-6.035,2.499
				c-1.6,1.6-2.499,3.771-2.499,6.035v17.067h-15.679l1.313-0.438c3.484-1.162,5.834-4.423,5.833-8.096v-17.067
				c0.001-2.263-0.898-4.434-2.499-6.035c-1.6-1.6-3.771-2.499-6.035-2.499H93.867c-2.263-0.001-4.434,0.898-6.035,2.499
				c-1.6,1.6-2.499,3.771-2.499,6.035v17.067H51.2c-14.132,0.015-25.585,11.468-25.6,25.6v59.733H8.533
				c-2.263-0.001-4.434,0.898-6.035,2.499c-1.6,1.6-2.499,3.771-2.499,6.035v59.733c-0.001,2.263,0.898,4.434,2.499,6.035
				c1.6,1.6,3.771,2.499,6.035,2.499H332.6l0.2,0.004l0.192-0.004h170.475c2.263,0.001,4.434-0.898,6.035-2.499
				c1.6-1.6,2.499-3.771,2.499-6.035v-59.733C512.001,328.401,511.102,326.23,509.501,324.63z M460.8,253.865
				c4.711,0.005,8.529,3.822,8.533,8.533v59.733c-2.263-0.001-4.434,0.898-6.035,2.499c-1.6,1.6-2.499,3.771-2.499,6.035v8.533
				h-59.733v-76.8c0.005-4.711,3.822-8.529,8.533-8.533H460.8z M392.533,228.265H409.6v8.071l-17.067-5.688V228.265z M384,262.398
				v24.297l-17.067-2.431v-4.799c0.001-2.263-0.898-4.434-2.499-6.035c-1.6-1.6-3.771-2.499-6.035-2.499h-59.733v-8.533H332.8H384z
				 M384,303.936v16.926l-28.067-3.897l7.2-4.8c2.374-1.582,3.8-4.247,3.8-7.1v-3.559L384,303.936z M349.867,245.331h-8.533v-8.533
				h8.533V245.331z M341.333,177.065v21.333h-57.56l-2.136-21.333H341.333z M221.867,134.398v-4.267h68.267v4.267h-23.042
				c-2.263-0.001-4.434,0.898-6.035,2.499c-1.6,1.6-2.499,3.771-2.499,6.035v4.374c-0.848-0.12-1.702-0.196-2.558-0.229
				c-0.583,0-1.135,0.115-1.708,0.153v-4.299c0.001-2.263-0.898-4.434-2.499-6.035c-1.6-1.6-3.771-2.499-6.035-2.499H221.867z
				 M267.229,204.416c-7.305-2.335-15.157-2.335-22.461,0.002l3.333-33.486c0.578-3.913,3.944-6.805,7.9-6.787
				c3.807-0.059,7.111,2.617,7.842,6.354L267.229,204.416z M236.709,234.085c2.556-8.519,10.396-14.353,19.29-14.354
				c8.894-0.001,16.736,5.832,19.293,14.35l3.374,11.25h-45.331L236.709,234.085z M230.4,262.398h51.2v54.458l-6.517,3.258
				c-12.021,5.975-26.146,5.975-38.167,0l-6.517-3.258V262.398z M170.667,177.065h59.684l-2.13,21.333h-57.554V177.065z
				 M162.133,236.798h8.533v8.533h-8.533V236.798z M128,303.936l17.067-2.431v3.559c0,2.853,1.426,5.518,3.8,7.1l7.2,4.8
				L128,320.862V303.936z M102.4,228.265h17.067v2.383l-17.067,5.688V228.265z M42.667,262.398c0.005-4.711,3.822-8.529,8.533-8.533
				h51.2c4.711,0.005,8.529,3.822,8.533,8.533v76.8H51.2v-8.533c0.001-2.263-0.898-4.434-2.499-6.035
				c-1.6-1.6-3.771-2.499-6.035-2.499V262.398z M102.4,381.865H17.067v-42.667h17.067v8.533c-0.001,2.263,0.898,4.434,2.499,6.035
				c1.6,1.6,3.771,2.499,6.035,2.499H156.35l10.242,25.6H102.4z M204.8,374.715v7.15h-19.825l-10.241-25.6h31.162
				C205.206,362.391,204.84,368.55,204.8,374.715z M208.587,339.198l-52.229,0H128v-1.101l83.739-11.629
				C210.527,330.679,209.477,334.923,208.587,339.198z M213.333,309.011l-31.804,4.417l-19.396-12.93v-12.5h51.2V309.011z
				 M213.333,270.931H153.6c-2.263-0.001-4.434,0.898-6.035,2.499c-1.6,1.6-2.499,3.771-2.499,6.035v4.799L128,286.695v-24.297h25.6
				h59.733V270.931z M215.516,245.331h-27.782v-17.067c0.001-2.263-0.898-4.434-2.499-6.035c-1.6-1.6-3.771-2.499-6.035-2.499
				h-8.533v-4.267h55.85l-0.203,2.033c-2.657,3.514-4.673,7.469-5.955,11.683L215.516,245.331z M290.133,381.865h-68.267v-7.15
				c0.026-13.631,1.821-27.202,5.341-40.371l2.075,1.037c16.83,8.361,36.604,8.361,53.433,0l2.076-1.038
				c3.52,13.169,5.315,26.74,5.341,40.372V381.865z M291.642,229.181v-0.004c-1.282-4.214-3.298-8.169-5.956-11.682l-0.203-2.031
				h55.851v4.267H332.8c-2.263-0.001-4.434,0.898-6.035,2.499c-1.6,1.6-2.499,3.771-2.499,6.035v17.067h-27.782L291.642,229.181z
				 M298.667,287.998h51.2v12.5l-19.396,12.93l-31.804-4.417V287.998z M300.261,326.468L384,338.097v1.101h-28.358h-52.229
				C302.523,334.921,301.473,330.677,300.261,326.468z M327.025,381.865H307.2v-7.15c-0.04-6.165-0.406-12.324-1.096-18.45h31.159
				L327.025,381.865z M494.933,381.865H345.4l10.242-25.6h113.692c2.263,0.001,4.434-0.898,6.035-2.499
				c1.6-1.6,2.499-3.771,2.499-6.035v-8.533h17.067V381.865z"/>
			<path d="M416.367,289.765c5.115,4.929,12.997,5.561,18.833,1.512c5.799,4.182,13.776,3.541,18.833-1.513l4.267-4.267
				c2.184-2.15,3.047-5.305,2.261-8.267c-0.785-2.962-3.099-5.275-6.06-6.06c-2.962-0.785-6.117,0.078-8.267,2.261l-2.65,2.65
				c-5.033-3.525-11.734-3.525-16.767,0l-2.651-2.65c-1.6-1.601-3.77-2.5-6.033-2.5s-4.433,0.899-6.033,2.5
				c-1.601,1.6-2.5,3.77-2.5,6.033c0,2.263,0.899,4.433,2.5,6.033L416.367,289.765z"/>
			<path d="M57.967,289.764c5.115,4.929,12.997,5.562,18.833,1.513c5.799,4.182,13.776,3.541,18.833-1.513l4.267-4.267
				c3.288-3.339,3.267-8.706-0.047-12.019c-3.314-3.314-8.68-3.335-12.019-0.047l-2.65,2.65c-5.033-3.525-11.734-3.525-16.767,0
				l-2.651-2.65c-3.341-3.281-8.701-3.256-12.012,0.054c-3.311,3.311-3.335,8.671-0.054,12.012L57.967,289.764z"/>
		</g>
	</g>
</g>
<g>
</g>
<g>
</g>
<g>
</g>
<g>
</g>
<g>
</g>
<g>
</g>
<g>
</g>
<g>
</g>
<g>
</g>
<g>
</g>
<g>
</g>
<g>
</g>
<g>
</g>
<g>
</g>
<g>
</g>
</svg>
