<?xml version="1.0" encoding="iso-8859-1"?>
<!-- Generator: Adobe Illustrator 19.0.0, SVG Export Plug-In . SVG Version: 6.00 Build 0)  -->
<svg version="1.1" id="Layer_1" xmlns="http://www.w3.org/2000/svg" xmlns:xlink="http://www.w3.org/1999/xlink" x="0px" y="0px"
	 viewBox="0 0 512 512" style="enable-background:new 0 0 512 512;" xml:space="preserve">
<g>
	<g>
		<path d="M503.759,125.726c-2.222-14.734-15.988-27.881-34.558-25.502c-16.61,2.128-27.999,17.999-25.502,34.558
			c1.173,7.776,2.365,16.607,3.45,26.266l-35.834,15.77c-0.43-8.768-0.991-17.581-1.676-26.414l23.039-4.905
			c4.051-0.862,6.636-4.846,5.774-8.896c-0.862-4.051-4.848-6.638-8.896-5.774l-22.08,4.701
			c-5.587-18.781-23.15-32.465-43.377-32.465H147.812c-19.754,0-36.973,13.051-42.971,31.157l-36.389-6.466
			c-0.449-5.573-2.432-10.925-5.835-15.536c-4.817-6.527-11.887-10.788-19.909-11.997c-16.565-2.5-32.061,8.945-34.557,25.502
			c-6.157,40.84-14.432,121.342-0.661,201.648c0.7,4.083,4.576,6.826,8.659,6.125c4.083-0.7,6.825-4.577,6.125-8.659
			c-13.416-78.233-5.314-156.929,0.71-196.875c1.264-8.38,9.109-14.17,17.491-12.908c4.061,0.612,7.638,2.769,10.076,6.073
			c2.438,3.304,3.443,7.358,2.832,11.419c-8.169,54.179-17.237,157.978,13.823,244.429c2.854,7.945-1.259,16.728-9.172,19.629
			c-0.796,0.201-15.234,3.539-19.747-9.202c-1.745-4.925-3.414-10.021-4.961-15.15c-1.196-3.965-5.38-6.211-9.346-5.014
			c-3.965,1.196-6.209,5.381-5.014,9.346c1.615,5.354,3.359,10.677,5.182,15.825c2.708,7.644,7.757,13.398,14.6,16.645
			c10.392,4.933,22.692,2.263,24.262,1.699c13.311-4.783,21.239-17.96,19.969-31.436l34.989-7.327
			c6.76,21.342,27.196,36.852,49.473,36.888c22.749,0.037,55.633,0.055,88.516,0.055c32.883,0,65.766-0.055,88.515-0.055
			c25.309,0,42.38-16.046,49.14-37.388l35.322,7.827c-1.27,13.476,6.657,26.654,19.969,31.437c1.889,0.678,5.657,1.363,9.819,1.363
			c0.001,0,0,0,0.001,0c14.019,0,24.604-7.183,29.04-19.708C522.068,295.574,512.51,183.76,503.759,125.726z M448.734,176.738
			c1.308,14.572,2.279,30.55,2.574,47.369h-3.601c-3.204-4.123-8.195-6.791-13.81-6.791h-21.509
			c-0.028-8.064-0.163-16.2-0.42-24.398L448.734,176.738z M117.682,145.753c1.302-15.526,14.537-27.688,30.13-27.688h216.287
			c15.594,0,28.829,12.162,30.13,27.688c2.025,24.152,3.078,48.191,3.161,71.564h-4.672c-7.181,0-13.36,4.352-16.054,10.554v-58.203
			c0-19.269-15.676-34.944-34.943-34.944H170.191c-19.269,0-34.943,15.676-34.943,34.944v58.199
			c-2.694-6.203-8.872-10.554-16.054-10.554h-4.674C114.602,193.95,115.656,169.918,117.682,145.753z M361.664,169.668v82.906
			c0,10.998-8.947,19.945-19.945,19.945H170.191c-10.998,0-19.945-8.947-19.945-19.945v-82.906c0-10.998,8.947-19.945,19.945-19.945
			H341.72C352.717,149.722,361.664,158.671,361.664,169.668z M67.06,142.743l35.321,6.276c-0.735,9.299-1.334,18.575-1.787,27.799
			l-35.832-15.769C65.493,154.548,66.271,148.422,67.06,142.743z M63.176,176.737l36.77,16.182
			c-0.257,8.196-0.397,16.332-0.425,24.393H78.013c-5.774,0-10.887,2.823-14.076,7.146h-3.341
			C60.883,207.51,61.859,191.411,63.176,176.737z M62.935,286.023c3.044,5.174,8.654,8.663,15.079,8.663h25.258
			c0.834,7.685,1.81,15.161,2.924,22.417l-36.014,15.622C66.812,317.274,64.469,301.585,62.935,286.023z M78.896,364.853
			c-1.884-5.711-3.596-11.492-5.145-17.327l35.044-15.201c1.641,8.693,3.496,17.028,5.56,24.98L78.896,364.853z M78.013,279.688
			c-1.355,0-2.5-1.145-2.5-2.5v-42.378c0-1.355,1.145-2.5,2.5-2.5h41.18c1.355,0,2.5,1.145,2.5,2.5v42.378
			c0,1.355-1.145,2.5-2.5,2.5H78.013z M378.72,368.61c-4.78,15.09-18.553,25.246-34.272,25.271
			c-45.486,0.073-131.498,0.073-176.984,0c-15.72-0.025-29.493-10.181-34.272-25.271c-6.746-21.298-11.73-46.143-14.836-73.922
			c0,0,18.337-0.024,18.337-17.499V262.5c4.289,14.447,17.679,25.017,33.498,25.017H341.72c15.82,0,29.21-10.571,33.498-25.017
			v14.693c0,17.804,18.334,17.499,18.334,17.499C390.446,322.468,385.466,347.311,378.72,368.61z M392.717,279.693
			c-1.355,0-2.5-1.145-2.5-2.5v-42.378c0-1.355,1.145-2.5,2.5-2.5h41.18c1.355,0,2.5,1.145,2.5,2.5v42.378
			c0,1.355-1.145,2.5-2.5,2.5H392.717z M433.014,364.852l-35.458-7.548c2.061-7.939,3.914-16.259,5.553-24.938l34.988,15.398
			C436.564,353.518,434.872,359.219,433.014,364.852z M405.713,317.125c1.115-7.261,2.092-14.742,2.928-22.433h25.256
			c6.424,0,12.034-3.49,15.078-8.662c-1.541,15.637-3.9,31.401-7.297,46.923L405.713,317.125z M473.627,387.402
			c-0.852,2.404-3.443,9.717-14.904,9.717c-2.497,0-4.376-0.386-4.835-0.511c-7.919-2.899-12.037-11.684-9.182-19.631
			c31.06-86.451,21.992-190.25,13.823-244.429c-0.612-4.061,0.394-8.115,2.832-11.419s6.017-5.46,10.076-6.072
			c0.769-0.116,15.335-1.212,17.492,12.907C497.578,184.594,506.841,293.642,473.627,387.402z"/>
	</g>
</g>
<g>
	<g>
		<path d="M28.153,353.271c-0.687-2.81-1.36-5.706-2.002-8.608c-0.894-4.045-4.897-6.599-8.94-5.705
			c-4.044,0.894-6.599,4.897-5.705,8.94c0.666,3.012,1.375,6.016,2.078,8.935c1.723,7.158,8.467,5.649,9.065,5.503
			C26.673,361.353,29.137,357.294,28.153,353.271z"/>
	</g>
</g>
<g>
	<g>
		<path d="M332.572,161.025H179.339c-10.44,0-18.935,8.494-18.935,18.936v52.03c0,10.44,8.494,18.935,18.935,18.935h153.232
			c10.44,0,18.935-8.494,18.935-18.935v-52.03C351.506,169.52,343.012,161.025,332.572,161.025z M336.507,231.99
			c0,2.134-1.802,3.936-3.936,3.936H179.339c-2.134,0-3.936-1.802-3.936-3.936v-52.03c0-2.134,1.802-3.937,3.936-3.937h153.232
			c2.134,0,3.936,1.803,3.936,3.937V231.99z"/>
	</g>
</g>
<g>
	<g>
		<path d="M201.113,293.102c-18.165,0-32.942,14.778-32.942,32.943s14.778,32.943,32.942,32.943
			c18.165,0,32.943-14.778,32.943-32.943S219.277,293.102,201.113,293.102z M201.113,343.989c-9.894,0-17.944-8.049-17.944-17.944
			s8.049-17.944,17.944-17.944c9.894,0,17.944,8.049,17.944,17.944S211.007,343.989,201.113,343.989z"/>
	</g>
</g>
<g>
	<g>
		<path d="M299.695,305.109c-12.175,0-22.079,9.904-22.079,22.079c0,12.175,9.904,22.079,22.079,22.079s22.079-9.904,22.079-22.079
			C321.775,315.013,311.87,305.109,299.695,305.109z M299.695,334.269c-3.904,0-7.08-3.177-7.08-7.08s3.177-7.08,7.08-7.08
			c3.904,0,7.081,3.177,7.081,7.08S303.599,334.269,299.695,334.269z"/>
	</g>
</g>
<g>
	<g>
		<path d="M255.952,331.982c-12.174,0-22.079,9.904-22.079,22.079c0,4.142,3.358,7.499,7.499,7.499c4.142,0,7.499-3.358,7.499-7.499
			c0-3.904,3.176-7.081,7.08-7.081c3.904,0,7.081,3.176,7.081,7.081c0,3.905-3.177,7.08-7.08,7.08c-4.142,0-7.499,3.358-7.499,7.499
			c0,4.142,3.358,7.499,7.499,7.499c12.175,0,22.079-9.904,22.079-22.079C278.031,341.887,268.127,331.982,255.952,331.982z"/>
	</g>
</g>
<g>
	<g>
		<path d="M328.855,346.561c-12.175,0-22.079,9.904-22.079,22.079s9.904,22.079,22.079,22.079c12.175,0,22.079-9.904,22.079-22.079
			S341.03,346.561,328.855,346.561z M328.855,375.721c-3.904,0-7.081-3.177-7.081-7.08s3.177-7.08,7.081-7.08
			c3.904,0,7.08,3.177,7.08,7.08S332.759,375.721,328.855,375.721z"/>
	</g>
</g>
<g>
	<g>
		<path d="M103.176,238.859c-4.021,0-7.279,3.26-7.279,7.279v19.723c0,4.021,3.26,7.279,7.279,7.279c4.02,0,7.279-3.26,7.279-7.279
			v-19.723C110.456,242.118,107.197,238.859,103.176,238.859z"/>
	</g>
</g>
<g>
	<g>
		<path d="M408.735,238.863c-4.02,0-7.279,3.26-7.279,7.279v19.724c-0.001,4.021,3.259,7.279,7.279,7.279s7.279-3.26,7.279-7.279
			v-19.724C416.014,242.121,412.755,238.863,408.735,238.863z"/>
	</g>
</g>
<g>
	<g>
		<path d="M298.179,187.63c-2.843-2.843-7.452-2.843-10.295,0l-29.645,29.646c-2.843,2.843-2.843,7.452,0,10.295
			c1.422,1.421,3.285,2.132,5.148,2.132c1.863,0,3.726-0.711,5.148-2.132l29.645-29.646
			C301.022,195.083,301.022,190.473,298.179,187.63z"/>
	</g>
</g>
<g>
	<g>
		<path d="M309.696,212.028c-2.843-2.843-7.452-2.843-10.295,0l-7.152,7.152c-2.843,2.843-2.843,7.452,0,10.295
			c1.422,1.421,3.285,2.132,5.148,2.132s3.726-0.711,5.148-2.132l7.152-7.152C312.539,219.48,312.539,214.87,309.696,212.028z"/>
	</g>
</g>
<g>
	<g>
		<path d="M151.721,329.466c-1.35-1.35-3.233-2.126-5.145-2.126c-1.922,0-3.796,0.777-5.145,2.126
			c-1.359,1.358-2.135,3.232-2.135,5.154c0,1.912,0.776,3.786,2.135,5.145c1.349,1.35,3.233,2.126,5.145,2.126
			s3.795-0.776,5.145-2.126c1.359-1.359,2.136-3.233,2.136-5.145C153.857,332.698,153.08,330.825,151.721,329.466z"/>
	</g>
</g>
<g>
	<g>
		<path d="M206.257,320.895c-1.35-1.35-3.233-2.126-5.145-2.126c-1.922,0-3.796,0.777-5.145,2.126
			c-1.359,1.358-2.135,3.232-2.135,5.154c0,1.912,0.776,3.786,2.135,5.145c1.349,1.35,3.233,2.126,5.145,2.126
			s3.795-0.776,5.145-2.126c1.359-1.359,2.136-3.233,2.136-5.145C208.393,324.128,207.616,322.254,206.257,320.895z"/>
	</g>
</g>
<g>
	<g>
		<path d="M151.721,300.184c-1.35-1.35-3.233-2.126-5.145-2.126c-1.922,0-3.796,0.777-5.145,2.126
			c-1.359,1.358-2.135,3.232-2.135,5.154c0,1.912,0.776,3.786,2.135,5.145c1.349,1.35,3.233,2.126,5.145,2.126
			s3.795-0.776,5.145-2.126c1.359-1.359,2.136-3.233,2.136-5.145C153.857,303.417,153.08,301.543,151.721,300.184z"/>
	</g>
</g>
<g>
	<g>
		<path d="M370.479,329.466c-1.35-1.35-3.233-2.126-5.145-2.126c-1.922,0-3.796,0.777-5.145,2.126
			c-1.359,1.358-2.135,3.232-2.135,5.154c0,1.912,0.776,3.786,2.135,5.145c1.349,1.35,3.232,2.126,5.145,2.126
			c1.912,0,3.795-0.776,5.145-2.126c1.359-1.359,2.136-3.233,2.136-5.145C372.615,332.698,371.838,330.825,370.479,329.466z"/>
	</g>
</g>
<g>
	<g>
		<path d="M370.479,300.184c-1.35-1.35-3.233-2.126-5.145-2.126c-1.922,0-3.796,0.777-5.145,2.126
			c-1.359,1.358-2.135,3.232-2.135,5.154c0,1.912,0.776,3.786,2.135,5.145c1.349,1.35,3.232,2.126,5.145,2.126
			c1.912,0,3.795-0.776,5.145-2.126c1.359-1.359,2.136-3.233,2.136-5.145C372.615,303.417,371.838,301.543,370.479,300.184z"/>
	</g>
</g>
<g>
</g>
<g>
</g>
<g>
</g>
<g>
</g>
<g>
</g>
<g>
</g>
<g>
</g>
<g>
</g>
<g>
</g>
<g>
</g>
<g>
</g>
<g>
</g>
<g>
</g>
<g>
</g>
<g>
</g>
</svg>
